<?xml version="1.0" encoding="UTF-8"?>
<svg xmlns="http://www.w3.org/2000/svg" xmlns:xlink="http://www.w3.org/1999/xlink" viewBox="0 0 1792 1024">
  <defs>
    <style>
      .hidden {
        fill: #fff;
      }

      .hidden, .cls-1 {
        stroke: #000;
        stroke-miterlimit: 10;
      }

      .cls-2 {
        fill: #000;
        stroke-width: 0px;
      }

      .cls-1 {
        fill: none;
      }
    </style>
  </defs>
  <g id="bgimage">
    <image width="3733" height="2133" transform="translate(.08 .08) scale(.48)" xlink:href="hidden_object_game_bg.jpg"/>
  </g>
  <g id="hidden-objects">
    <polygon class="hidden" points="1662.05 393.54 1663.88 392.77 1665.3 391.89 1666.42 391.89 1668.07 391.18 1669.29 390.88 1670.79 391.41 1673.33 391.65 1674.51 392.21 1675.28 392.77 1676.46 394.72 1677.17 395.43 1678.05 396.73 1679.23 397.26 1679.71 398.14 1682.07 399.33 1682.48 399.98 1681.95 400.33 1682.19 400.92 1681.3 400.92 1681.95 402.93 1682.01 406.1 1681.83 407.24 1681.12 408.01 1680.59 407.65 1679.35 405.29 1679.47 406.94 1679.71 408.42 1680.83 409.01 1680.06 409.66 1680.12 410.49 1678.35 410.49 1677.76 411.85 1676.46 411.85 1675.99 413.2 1674.63 413.2 1674.51 414.38 1673.86 414.38 1673.51 415.33 1673.09 416.51 1672.27 416.98 1671.5 417.69 1670.79 418.22 1670.14 418.58 1668.84 418.58 1667.6 418.58 1666.54 418.58 1666.12 417.87 1665.18 417.4 1664.65 416.86 1663.41 415.98 1663.17 415.03 1663.05 413.97 1662.64 413.03 1662.64 412.32 1662.05 411.67 1660.87 410.37 1660.51 409.01 1659.92 408.07 1659.92 406.94 1659.39 405.53 1659.63 404.17 1659.39 403.28 1658.86 404.29 1658.86 405.64 1658.51 407.18 1657.56 408.3 1656.03 408.72 1655.2 406.1 1654.85 402.99 1654.85 401.63 1654.85 400.27 1655.14 399.44 1655.79 398.74 1656.03 397.67 1656.68 397.38 1658.27 396.96 1658.86 396.55 1659.22 395.78 1660.4 395.61 1660.93 394.72 1661.7 394.25 1662.05 393.54"/>
    <polygon class="hidden" points="1020.12 336.12 1021.95 335.35 1023.37 334.47 1024.49 334.47 1026.14 333.76 1027.36 333.46 1028.86 333.99 1031.4 334.23 1032.58 334.79 1033.35 335.35 1034.53 337.3 1035.24 338.01 1036.12 339.31 1037.3 339.84 1037.78 340.72 1040.14 341.91 1040.55 342.56 1040.02 342.91 1040.26 343.5 1039.37 343.5 1040.02 345.51 1040.08 348.68 1039.9 349.82 1039.19 350.59 1038.66 350.23 1037.42 347.87 1037.54 349.52 1037.78 351 1038.9 351.59 1038.13 352.24 1038.19 353.07 1036.42 353.07 1035.83 354.42 1034.53 354.42 1034.06 355.78 1032.7 355.78 1032.58 356.96 1031.93 356.96 1031.58 357.91 1031.16 359.09 1030.34 359.56 1029.57 360.27 1028.86 360.8 1028.21 361.16 1026.91 361.16 1025.67 361.16 1024.61 361.16 1024.19 360.45 1023.25 359.98 1022.72 359.44 1021.48 358.56 1021.24 357.61 1021.12 356.55 1020.71 355.61 1020.71 354.9 1020.12 354.25 1018.94 352.95 1018.58 351.59 1017.99 350.65 1017.99 349.52 1017.46 348.11 1017.7 346.75 1017.46 345.86 1016.93 346.87 1016.93 348.22 1016.58 349.76 1015.63 350.88 1014.1 351.3 1013.27 348.68 1012.92 345.57 1012.92 344.21 1012.92 342.85 1013.21 342.02 1013.86 341.32 1014.1 340.25 1014.75 339.96 1016.34 339.54 1016.93 339.13 1017.29 338.36 1018.47 338.19 1019 337.3 1019.77 336.83 1020.12 336.12"/>
    <polygon class="hidden" points="1259.49 211.45 1260.86 210.87 1261.93 210.21 1262.77 210.21 1264.02 209.67 1264.93 209.45 1266.06 209.85 1267.97 210.03 1268.86 210.45 1269.43 210.87 1270.32 212.34 1270.86 212.87 1271.52 213.85 1272.41 214.25 1272.77 214.91 1274.54 215.8 1274.85 216.29 1274.45 216.56 1274.63 217 1273.96 217 1274.45 218.51 1274.5 220.9 1274.36 221.75 1273.83 222.33 1273.43 222.07 1272.5 220.29 1272.59 221.53 1272.77 222.64 1273.61 223.09 1273.03 223.58 1273.08 224.2 1271.74 224.2 1271.3 225.22 1270.32 225.22 1269.97 226.24 1268.95 226.24 1268.86 227.13 1268.37 227.13 1268.1 227.84 1267.79 228.73 1267.17 229.08 1266.59 229.62 1266.06 230.02 1265.57 230.28 1264.59 230.28 1263.66 230.28 1262.86 230.28 1262.55 229.75 1261.84 229.39 1261.44 228.99 1260.51 228.33 1260.33 227.62 1260.24 226.82 1259.93 226.11 1259.93 225.57 1259.49 225.09 1258.6 224.11 1258.33 223.09 1257.89 222.38 1257.89 221.53 1257.49 220.47 1257.66 219.45 1257.49 218.78 1257.09 219.53 1257.09 220.56 1256.82 221.71 1256.11 222.55 1254.95 222.87 1254.33 220.9 1254.07 218.56 1254.07 217.54 1254.07 216.51 1254.29 215.89 1254.78 215.36 1254.95 214.56 1255.44 214.34 1256.64 214.03 1257.09 213.72 1257.35 213.14 1258.24 213 1258.64 212.34 1259.22 211.98 1259.49 211.45"/>
    <polygon class="hidden" points="1628.41 20.33 1629.78 19.75 1630.85 19.09 1631.69 19.09 1632.94 18.56 1633.85 18.33 1634.98 18.73 1636.89 18.91 1637.78 19.33 1638.36 19.75 1639.24 21.22 1639.78 21.75 1640.44 22.73 1641.33 23.13 1641.69 23.8 1643.46 24.68 1643.77 25.17 1643.38 25.44 1643.55 25.88 1642.89 25.88 1643.38 27.39 1643.42 29.78 1643.29 30.64 1642.75 31.21 1642.35 30.95 1641.42 29.17 1641.51 30.41 1641.69 31.52 1642.53 31.97 1641.95 32.46 1642 33.08 1640.67 33.08 1640.22 34.1 1639.24 34.1 1638.89 35.12 1637.87 35.12 1637.78 36.01 1637.29 36.01 1637.02 36.72 1636.71 37.61 1636.09 37.97 1635.51 38.5 1634.98 38.9 1634.49 39.16 1633.51 39.16 1632.58 39.16 1631.78 39.16 1631.47 38.63 1630.76 38.28 1630.36 37.88 1629.43 37.21 1629.25 36.5 1629.16 35.7 1628.85 34.99 1628.85 34.46 1628.41 33.97 1627.52 32.99 1627.25 31.97 1626.81 31.26 1626.81 30.41 1626.41 29.35 1626.59 28.33 1626.41 27.66 1626.01 28.42 1626.01 29.44 1625.74 30.59 1625.03 31.44 1623.88 31.75 1623.25 29.78 1622.99 27.44 1622.99 26.42 1622.99 25.4 1623.21 24.77 1623.7 24.24 1623.88 23.44 1624.37 23.22 1625.56 22.91 1626.01 22.6 1626.28 22.02 1627.16 21.89 1627.56 21.22 1628.14 20.87 1628.41 20.33"/>
    <polygon class="hidden" points="1522.34 840.07 1524.7 839.08 1526.53 837.93 1527.98 837.93 1530.11 837.02 1531.68 836.64 1533.62 837.32 1536.89 837.63 1538.42 838.35 1539.41 839.08 1540.93 841.59 1541.84 842.5 1542.99 844.18 1544.51 844.87 1545.12 846.01 1548.17 847.53 1548.7 848.37 1548.01 848.83 1548.32 849.59 1547.18 849.59 1548.01 852.18 1548.09 856.27 1547.86 857.74 1546.95 858.73 1546.26 858.27 1544.66 855.23 1544.82 857.36 1545.12 859.26 1546.57 860.02 1545.58 860.86 1545.65 861.93 1543.37 861.93 1542.61 863.68 1540.93 863.68 1540.32 865.43 1538.57 865.43 1538.42 866.96 1537.58 866.96 1537.12 868.18 1536.59 869.7 1535.52 870.31 1534.53 871.22 1533.62 871.91 1532.78 872.37 1531.1 872.37 1529.5 872.37 1528.13 872.37 1527.6 871.45 1526.38 870.84 1525.69 870.16 1524.09 869.01 1523.79 867.8 1523.64 866.42 1523.1 865.21 1523.1 864.29 1522.34 863.45 1520.82 861.78 1520.36 860.02 1519.6 858.81 1519.6 857.36 1518.91 855.53 1519.22 853.78 1518.91 852.64 1518.23 853.93 1518.23 855.68 1517.77 857.66 1516.55 859.11 1514.57 859.64 1513.51 856.27 1513.05 852.26 1513.05 850.5 1513.05 848.75 1513.43 847.68 1514.27 846.77 1514.57 845.4 1515.41 845.02 1517.47 844.48 1518.23 843.95 1518.69 842.96 1520.21 842.73 1520.89 841.59 1521.89 840.98 1522.34 840.07"/>
    <polygon class="hidden" points="96.32 729.43 92.26 727.73 89.13 725.77 86.64 725.77 82.98 724.2 80.29 723.55 76.97 724.72 71.34 725.25 68.73 726.49 67.03 727.73 64.41 732.05 62.84 733.61 60.88 736.49 58.27 737.67 57.22 739.63 51.99 742.24 51.08 743.68 52.25 744.47 51.73 745.77 53.69 745.77 52.25 750.22 52.12 757.24 52.51 759.77 54.08 761.47 55.26 760.68 58.01 755.45 57.74 759.11 57.22 762.38 54.74 763.69 56.44 765.13 56.31 766.96 60.23 766.96 61.54 769.97 64.41 769.97 65.46 772.97 68.47 772.97 68.73 775.59 70.17 775.59 70.95 777.68 71.87 780.3 73.7 781.34 75.4 782.91 76.97 784.09 78.4 784.87 81.28 784.87 84.03 784.87 86.38 784.87 87.3 783.3 89.39 782.26 90.56 781.08 93.31 779.12 93.83 777.03 94.1 774.67 95.01 772.58 95.01 771.01 96.32 769.57 98.93 766.7 99.72 763.69 101.03 761.6 101.03 759.11 102.2 755.97 101.68 752.97 102.2 751.01 103.38 753.23 103.38 756.24 104.16 759.64 106.26 762.12 109.66 763.04 111.49 757.24 112.27 750.35 112.27 747.34 112.27 744.34 111.62 742.51 110.18 740.94 109.66 738.58 108.22 737.93 104.69 737.01 103.38 736.1 102.59 734.4 99.98 734.01 98.8 732.05 97.1 731 96.32 729.43"/>
    <polygon class="hidden" points="405.03 499.42 402.03 498.16 399.71 496.71 397.87 496.71 395.17 495.55 393.18 495.07 390.72 495.94 386.56 496.33 384.63 497.25 383.37 498.16 381.44 501.35 380.28 502.51 378.83 504.64 376.9 505.51 376.12 506.96 372.26 508.89 371.58 509.96 372.45 510.54 372.06 511.5 373.51 511.5 372.45 514.79 372.35 519.98 372.64 521.85 373.8 523.11 374.67 522.53 376.7 518.66 376.51 521.37 376.12 523.78 374.29 524.75 375.54 525.81 375.45 527.17 378.35 527.17 379.31 529.39 381.44 529.39 382.21 531.61 384.44 531.61 384.63 533.55 385.69 533.55 386.27 535.09 386.95 537.03 388.3 537.8 389.56 538.96 390.72 539.83 391.78 540.41 393.91 540.41 395.94 540.41 397.68 540.41 398.36 539.25 399.9 538.48 400.77 537.61 402.8 536.16 403.19 534.61 403.38 532.87 404.06 531.32 404.06 530.16 405.03 529.1 406.96 526.97 407.54 524.75 408.51 523.2 408.51 521.37 409.38 519.04 408.99 516.82 409.38 515.37 410.25 517.01 410.25 519.24 410.83 521.75 412.38 523.59 414.89 524.27 416.24 519.98 416.82 514.89 416.82 512.66 416.82 510.44 416.34 509.09 415.28 507.93 414.89 506.19 413.83 505.7 411.21 505.03 410.25 504.35 409.67 503.09 407.73 502.8 406.86 501.35 405.61 500.58 405.03 499.42"/>
    <polygon class="hidden" points="340.69 233.83 338.5 232.92 336.81 231.86 335.47 231.86 333.5 231.01 332.05 230.66 330.25 231.3 327.22 231.58 325.81 232.25 324.9 232.92 323.49 235.24 322.64 236.09 321.58 237.64 320.17 238.28 319.61 239.33 316.79 240.74 316.29 241.52 316.93 241.94 316.65 242.65 317.7 242.65 316.93 245.04 316.86 248.83 317.07 250.19 317.92 251.11 318.55 250.68 320.03 247.86 319.89 249.84 319.61 251.6 318.27 252.3 319.19 253.08 319.11 254.07 321.23 254.07 321.94 255.69 323.49 255.69 324.05 257.31 325.67 257.31 325.81 258.72 326.59 258.72 327.01 259.85 327.5 261.26 328.49 261.82 329.41 262.67 330.25 263.3 331.03 263.73 332.58 263.73 334.06 263.73 335.33 263.73 335.82 262.88 336.95 262.32 337.59 261.68 339.07 260.62 339.35 259.5 339.49 258.23 339.98 257.1 339.98 256.25 340.69 255.48 342.1 253.93 342.52 252.3 343.23 251.18 343.23 249.84 343.86 248.15 343.58 246.52 343.86 245.47 344.5 246.67 344.5 248.29 344.92 250.12 346.05 251.46 347.88 251.95 348.87 248.83 349.29 245.11 349.29 243.49 349.29 241.87 348.94 240.88 348.16 240.04 347.88 238.77 347.11 238.42 345.2 237.92 344.5 237.43 344.07 236.51 342.66 236.3 342.03 235.24 341.11 234.68 340.69 233.83"/>
    <polygon class="hidden" points="602.97 372.64 601.32 371.95 600.05 371.15 599.04 371.15 597.56 370.52 596.47 370.25 595.12 370.73 592.84 370.94 591.78 371.44 591.09 371.95 590.03 373.7 589.39 374.33 588.59 375.5 587.53 375.98 587.11 376.77 584.99 377.83 584.62 378.42 585.09 378.74 584.88 379.27 585.68 379.27 585.09 381.07 585.04 383.91 585.2 384.94 585.84 385.63 586.31 385.31 587.43 383.19 587.32 384.67 587.11 386 586.1 386.53 586.79 387.11 586.74 387.86 588.33 387.86 588.86 389.08 590.03 389.08 590.45 390.3 591.67 390.3 591.78 391.36 592.36 391.36 592.68 392.21 593.05 393.27 593.79 393.69 594.48 394.33 595.12 394.8 595.7 395.12 596.87 395.12 597.98 395.12 598.94 395.12 599.31 394.49 600.15 394.06 600.63 393.58 601.75 392.79 601.96 391.94 602.06 390.99 602.44 390.14 602.44 389.5 602.97 388.92 604.03 387.75 604.34 386.53 604.87 385.68 604.87 384.67 605.35 383.4 605.14 382.18 605.35 381.39 605.83 382.29 605.83 383.51 606.15 384.89 607 385.89 608.37 386.27 609.12 383.91 609.43 381.12 609.43 379.9 609.43 378.68 609.17 377.94 608.59 377.3 608.37 376.35 607.79 376.08 606.36 375.71 605.83 375.34 605.51 374.65 604.45 374.49 603.97 373.7 603.28 373.27 602.97 372.64"/>
    <polygon class="hidden" points="731.88 549.63 735.25 548.22 737.85 546.59 739.91 546.59 742.95 545.29 745.19 544.75 747.94 545.72 752.61 546.16 754.78 547.19 756.19 548.22 758.36 551.8 759.67 553.1 761.29 555.49 763.46 556.47 764.33 558.1 768.67 560.27 769.43 561.46 768.46 562.11 768.89 563.2 767.26 563.2 768.46 566.89 768.56 572.71 768.24 574.81 766.94 576.22 765.96 575.57 763.68 571.23 763.9 574.27 764.33 576.98 766.39 578.06 764.98 579.26 765.09 580.78 761.84 580.78 760.75 583.27 758.36 583.27 757.49 585.77 755 585.77 754.78 587.94 753.59 587.94 752.94 589.68 752.18 591.85 750.66 592.72 749.25 594.02 747.94 594.99 746.75 595.65 744.36 595.65 742.08 595.65 740.13 595.65 739.37 594.34 737.63 593.48 736.66 592.5 734.38 590.87 733.94 589.13 733.73 587.18 732.97 585.44 732.97 584.14 731.88 582.95 729.71 580.56 729.06 578.06 727.98 576.33 727.98 574.27 727 571.66 727.43 569.17 727 567.54 726.02 569.38 726.02 571.88 725.37 574.7 723.64 576.76 720.81 577.52 719.29 572.71 718.64 567 718.64 564.5 718.64 562 719.19 560.48 720.38 559.18 720.81 557.23 722.01 556.69 724.94 555.93 726.02 555.17 726.67 553.76 728.84 553.43 729.82 551.8 731.23 550.93 731.88 549.63"/>
  </g>
  <g id="blacks">
    <g>
      <path class="cls-1" d="M1672.56,402.63s1.06-3.43,2.48-.94c0,0,0,2.83-2.48.94Z"/>
      <path class="cls-2" d="M1674.84,401.37s-.34-.57-.95-.58c0,0-.58.07-.95.95,0,0-.17.68.25,1.07.42.39,1.92.75,1.66-1.45ZM1674.58,402.03l-.69.19s.24-.66-.23-.99h.75s.25.34.17.8Z"/>
      <path class="cls-1" d="M1664.99,402.63s-1.06-3.43-2.48-.94c0,0,0,2.83,2.48.94Z"/>
      <path class="cls-2" d="M1664.36,402.82c.42-.39.25-1.07.25-1.07-.37-.88-.95-.95-.95-.95-.62,0-.95.58-.95.58-.26,2.2,1.24,1.84,1.66,1.45ZM1664.29,402.1l-.73.21c.35-.46,0-.91,0-.91l.64-.11c.22.41.09.81.09.81Z"/>
      <path class="cls-1" d="M1674.6,410.23l-.71.54.35.99v1.53l-.38,1.09-.96,1.11s-.29.41-1.01.68h-3.47l-.63.17-1.16-.17h-1.42s-1.09-.52-1.17-.6-.38-.52-.38-.52l-.55-.6"/>
      <path class="cls-2" d="M1665.99,416.25s3.36,1.74,3.84.02c0,0-1.34-.28-3.84-.02Z"/>
      <path class="cls-2" d="M1670.58,410.81c-.5-.72-2.43,0-2.43,0l-.9.23-.59-.55h-1.35l-1.27.68v1.17l.29,1.26,1.3,1.26h.99l.77-.27.59.27h1.13l1.35-.45.68-.63v-.9s-.05-1.35-.54-2.07ZM1664.97,411.69s1.47-1.09,1.64.48c0,0,.49,1.07-1.64-.48ZM1668.44,412.34s.51-1.76,1.6-.6c0,0,1.03.56-1.6.6Z"/>
    </g>
    <g>
      <path class="cls-1" d="M1030.63,345.21s1.06-3.43,2.48-.94c0,0,0,2.83-2.48.94Z"/>
      <path class="cls-2" d="M1032.91,343.95s-.34-.57-.95-.58c0,0-.58.07-.95.95,0,0-.17.68.25,1.07.42.39,1.92.75,1.66-1.45ZM1032.65,344.61l-.69.19s.24-.66-.23-.99h.75s.25.34.17.8Z"/>
      <path class="cls-1" d="M1023.06,345.21s-1.06-3.43-2.48-.94c0,0,0,2.83,2.48.94Z"/>
      <path class="cls-2" d="M1022.43,345.4c.42-.39.25-1.07.25-1.07-.37-.88-.95-.95-.95-.95-.62,0-.95.58-.95.58-.26,2.2,1.24,1.84,1.66,1.45ZM1022.36,344.68l-.73.21c.35-.46,0-.91,0-.91l.64-.11c.22.41.09.81.09.81Z"/>
      <path class="cls-1" d="M1032.67,352.81l-.71.54.35.99v1.53l-.38,1.09-.96,1.11s-.29.41-1.01.68h-3.47l-.63.17-1.16-.17h-1.42s-1.09-.52-1.17-.6-.38-.52-.38-.52l-.55-.6"/>
      <path class="cls-2" d="M1024.05,358.83s3.36,1.74,3.84.02c0,0-1.34-.28-3.84-.02Z"/>
      <path class="cls-2" d="M1028.65,353.39c-.5-.72-2.43,0-2.43,0l-.9.23-.59-.55h-1.35l-1.27.68v1.17l.29,1.26,1.3,1.26h.99l.77-.27.59.27h1.13l1.35-.45.68-.63v-.9s-.05-1.35-.54-2.07ZM1023.04,354.27s1.47-1.09,1.64.48c0,0,.49,1.07-1.64-.48ZM1026.51,354.92s.51-1.76,1.6-.6c0,0,1.03.56-1.6.6Z"/>
    </g>
    <g>
      <path class="cls-1" d="M1267.39,218.29s.8-2.58,1.87-.71c0,0,0,2.13-1.87.71Z"/>
      <path class="cls-2" d="M1269.11,217.34s-.25-.43-.72-.43c0,0-.44.05-.72.72,0,0-.12.51.19.81.31.3,1.44.56,1.25-1.09ZM1268.91,217.84l-.52.14s.18-.5-.17-.74h.57s.19.26.13.6Z"/>
      <path class="cls-1" d="M1261.7,218.29s-.8-2.58-1.87-.71c0,0,0,2.13,1.87.71Z"/>
      <path class="cls-2" d="M1261.23,218.43c.31-.3.19-.81.19-.81-.28-.66-.72-.72-.72-.72-.46,0-.72.43-.72.43-.2,1.65.93,1.39,1.25,1.09ZM1261.17,217.89l-.55.16c.26-.35,0-.68,0-.68l.48-.08c.17.31.07.61.07.61Z"/>
      <path class="cls-1" d="M1268.92,224l-.53.41.27.75v1.15l-.29.82-.72.84s-.22.3-.76.51h-2.61l-.47.13-.87-.13h-1.07s-.82-.39-.88-.45-.28-.39-.28-.39l-.42-.45"/>
      <path class="cls-2" d="M1262.44,228.53s2.53,1.31,2.89.01c0,0-1.01-.21-2.89-.01Z"/>
      <path class="cls-2" d="M1265.9,224.44c-.37-.54-1.83,0-1.83,0l-.68.17-.44-.41h-1.02l-.96.51v.88l.22.95.98.95h.75l.58-.2.44.2h.85l1.02-.34.51-.47v-.68s-.03-1.02-.41-1.56ZM1261.68,225.11s1.1-.82,1.23.36c0,0,.37.81-1.23-.36ZM1264.29,225.59s.38-1.32,1.2-.45c0,0,.78.42-1.2.45Z"/>
    </g>
    <g>
      <path class="cls-1" d="M1636.31,27.17s.8-2.58,1.87-.71c0,0,0,2.13-1.87.71Z"/>
      <path class="cls-2" d="M1638.03,26.23s-.25-.43-.72-.43c0,0-.44.05-.72.72,0,0-.12.51.19.81.31.3,1.44.56,1.25-1.09ZM1637.83,26.72l-.52.14s.18-.5-.17-.74h.57s.19.26.13.6Z"/>
      <path class="cls-1" d="M1630.62,27.17s-.8-2.58-1.87-.71c0,0,0,2.13,1.87.71Z"/>
      <path class="cls-2" d="M1630.15,27.32c.31-.3.19-.81.19-.81-.28-.66-.72-.72-.72-.72-.46,0-.72.43-.72.43-.2,1.65.93,1.39,1.25,1.09ZM1630.09,26.77l-.55.16c.26-.35,0-.68,0-.68l.48-.08c.17.31.07.61.07.61Z"/>
      <path class="cls-1" d="M1637.84,32.88l-.53.41.27.75v1.15l-.29.82-.72.84s-.22.3-.76.51h-2.61l-.47.13-.87-.13h-1.07s-.82-.39-.88-.45-.28-.39-.28-.39l-.42-.45"/>
      <path class="cls-2" d="M1631.37,37.41s2.53,1.31,2.89.01c0,0-1.01-.21-2.89-.01Z"/>
      <path class="cls-2" d="M1634.82,33.32c-.37-.54-1.83,0-1.83,0l-.68.17-.44-.41h-1.02l-.96.51v.88l.22.95.98.95h.75l.58-.2.44.2h.85l1.02-.34.51-.47v-.68s-.03-1.02-.41-1.56ZM1630.6,33.99s1.1-.82,1.23.36c0,0,.37.81-1.23-.36ZM1633.22,34.47s.38-1.32,1.2-.45c0,0,.78.42-1.2.45Z"/>
    </g>
    <g>
      <path class="cls-1" d="M1535.9,851.8s1.37-4.42,3.2-1.22c0,0,0,3.66-3.2,1.22Z"/>
      <path class="cls-2" d="M1538.85,850.17s-.43-.74-1.23-.74c0,0-.75.09-1.23,1.23,0,0-.21.88.33,1.38.54.51,2.48.96,2.14-1.87ZM1538.5,851.03l-.89.25s.32-.85-.29-1.28h.97s.32.44.22,1.03Z"/>
      <path class="cls-1" d="M1526.13,851.8s-1.37-4.42-3.2-1.22c0,0,0,3.66,3.2,1.22Z"/>
      <path class="cls-2" d="M1525.33,852.05c.54-.51.33-1.38.33-1.38-.48-1.14-1.23-1.23-1.23-1.23-.8,0-1.23.74-1.23.74-.34,2.83,1.6,2.38,2.14,1.87ZM1525.23,851.11l-.95.27c.45-.59,0-1.17,0-1.17l.83-.14c.29.52.12,1.04.12,1.04Z"/>
      <path class="cls-1" d="M1538.53,861.6l-.91.7.46,1.28v1.98l-.49,1.41-1.24,1.44s-.38.52-1.31.87h-4.47l-.81.22-1.49-.22h-1.84s-1.41-.67-1.51-.78-.49-.67-.49-.67l-.72-.77"/>
      <path class="cls-2" d="M1527.42,869.37s4.34,2.25,4.95.02c0,0-1.72-.36-4.95-.02Z"/>
      <path class="cls-2" d="M1533.35,862.35c-.64-.93-3.14,0-3.14,0l-1.16.29-.76-.7h-1.74l-1.64.88v1.51l.37,1.63,1.68,1.63h1.28l.99-.35.76.35h1.45l1.74-.58.87-.81v-1.16s-.06-1.74-.7-2.67ZM1526.11,863.49s1.89-1.41,2.11.62c0,0,.63,1.38-2.11-.62ZM1530.59,864.32s.66-2.26,2.06-.78c0,0,1.34.72-2.06.78Z"/>
    </g>
    <g>
      <path class="cls-1" d="M73.04,749.57s-2.35-7.58-5.49-2.09c0,0,0,6.28,5.49,2.09Z"/>
      <path class="cls-2" d="M71.66,749.99c.93-.87.56-2.38.56-2.38-.83-1.95-2.11-2.11-2.11-2.11-1.37.01-2.11,1.28-2.11,1.28-.59,4.86,2.74,4.08,3.67,3.21ZM68.95,746.48h1.67c-1.05.73-.51,2.19-.51,2.19l-1.53-.42c-.18-1.01.37-1.76.37-1.76Z"/>
      <path class="cls-1" d="M89.81,749.57s2.35-7.58,5.49-2.09c0,0,0,6.28-5.49,2.09Z"/>
      <path class="cls-2" d="M94.86,746.78s-.75-1.27-2.11-1.28c0,0-1.28.16-2.11,2.11,0,0-.37,1.51.56,2.38.93.87,4.25,1.65,3.67-3.21ZM91.56,746.59l1.43.24s-.77.99,0,2.01l-1.63-.46s-.29-.89.2-1.79Z"/>
      <path class="cls-1" d="M68.54,766.38l1.57,1.2-.78,2.19v2.04s0,1.35,0,1.35l.84,2.42,2.12,2.47s.65.9,2.24,1.5h3.79s2.59,0,2.59,0h1.3s1.4.37,1.4.37l2.56-.37h3.15s2.41-1.14,2.59-1.33.83-1.15.83-1.15l1.23-1.32"/>
      <path class="cls-2" d="M87.6,779.72s-7.45,3.86-8.5.04c0,0,2.96-.61,8.5-.04Z"/>
      <path class="cls-2" d="M76.23,772.27v2s1.5,1.4,1.5,1.4l2.99,1h2.49s1.3-.6,1.3-.6l1.7.6h2.19s2.88-2.79,2.88-2.79l.64-2.79v-2.59s-2.82-1.51-2.82-1.51h-2.99s-1.3,1.21-1.3,1.21l-2-.5s-4.29-1.6-5.39,0-1.2,4.59-1.2,4.59ZM86.23,770.7c.38-3.48,3.62-1.06,3.62-1.06-4.7,3.44-3.62,1.06-3.62,1.06ZM78.63,769.72c2.4-2.55,3.53,1.34,3.53,1.34-5.82-.1-3.53-1.34-3.53-1.34Z"/>
    </g>
    <g>
      <path class="cls-1" d="M387.82,514.31s-1.74-5.61-4.06-1.55c0,0,0,4.64,4.06,1.55Z"/>
      <path class="cls-2" d="M386.8,514.62c.68-.64.41-1.76.41-1.76-.61-1.44-1.56-1.56-1.56-1.56-1.01,0-1.56.95-1.56.95-.43,3.6,2.03,3.02,2.71,2.37ZM384.79,512.02h1.23c-.77.54-.37,1.62-.37,1.62l-1.13-.31c-.14-.75.27-1.3.27-1.3Z"/>
      <path class="cls-1" d="M400.22,514.31s1.74-5.61,4.06-1.55c0,0,0,4.64-4.06,1.55Z"/>
      <path class="cls-2" d="M403.95,512.25s-.55-.94-1.56-.95c0,0-.95.12-1.56,1.56,0,0-.27,1.11.41,1.76.68.64,3.14,1.22,2.71-2.37ZM401.51,512.11l1.06.18s-.57.73,0,1.49l-1.2-.34s-.22-.66.15-1.32Z"/>
      <path class="cls-1" d="M384.49,526.74l1.16.88-.58,1.62v1.51s0,1,0,1l.62,1.79,1.57,1.82s.48.66,1.66,1.11h2.8s1.92,0,1.92,0h.96s1.03.27,1.03.27l1.89-.27h2.33s1.78-.85,1.92-.99.62-.85.62-.85l.91-.97"/>
      <path class="cls-2" d="M398.59,536.6s-5.51,2.85-6.28.03c0,0,2.19-.45,6.28-.03Z"/>
      <path class="cls-2" d="M390.18,531.09v1.47s1.11,1.03,1.11,1.03l2.21.74h1.84s.96-.44.96-.44l1.25.44h1.62s2.13-2.06,2.13-2.06l.47-2.06v-1.92s-2.08-1.11-2.08-1.11h-2.21s-.96.89-.96.89l-1.47-.37s-3.17-1.18-3.98,0-.88,3.39-.88,3.39ZM397.57,529.93c.28-2.57,2.68-.79,2.68-.79-3.48,2.54-2.68.79-2.68.79ZM391.95,529.21c1.78-1.89,2.61.99,2.61.99-4.31-.07-2.61-.99-2.61-.99Z"/>
    </g>
    <g>
      <path class="cls-1" d="M328.14,244.69s-1.27-4.09-2.96-1.13c0,0,0,3.38,2.96,1.13Z"/>
      <path class="cls-2" d="M327.39,244.92c.5-.47.3-1.28.3-1.28-.45-1.05-1.14-1.14-1.14-1.14-.74,0-1.14.69-1.14.69-.32,2.62,1.48,2.2,1.98,1.73ZM325.93,243.03h.9c-.57.39-.27,1.18-.27,1.18l-.82-.23c-.1-.54.2-.95.2-.95Z"/>
      <path class="cls-1" d="M337.18,244.69s1.27-4.09,2.96-1.13c0,0,0,3.38-2.96,1.13Z"/>
      <path class="cls-2" d="M339.9,243.19s-.4-.68-1.14-.69c0,0-.69.09-1.14,1.14,0,0-.2.81.3,1.28.5.47,2.29.89,1.98-1.73ZM338.12,243.09l.77.13s-.41.54,0,1.08l-.88-.25s-.16-.48.11-.97Z"/>
      <path class="cls-1" d="M325.71,253.76l.84.65-.42,1.18v1.1s0,.73,0,.73l.45,1.31,1.14,1.33s.35.48,1.21.81h2.04s1.4,0,1.4,0h.7s.75.2.75.2l1.38-.2h1.7s1.3-.62,1.4-.72.45-.62.45-.62l.66-.71"/>
      <path class="cls-2" d="M335.99,260.95s-4.02,2.08-4.58.02c0,0,1.6-.33,4.58-.02Z"/>
      <path class="cls-2" d="M329.86,256.93v1.08s.81.75.81.75l1.61.54h1.34s.7-.32.7-.32l.91.32h1.18s1.55-1.51,1.55-1.51l.35-1.51v-1.4s-1.52-.81-1.52-.81h-1.61s-.7.65-.7.65l-1.08-.27s-2.31-.86-2.9,0-.65,2.47-.65,2.47ZM335.25,256.08c.2-1.88,1.95-.57,1.95-.57-2.54,1.85-1.95.57-1.95.57ZM331.15,255.56c1.29-1.38,1.9.72,1.9.72-3.14-.05-1.9-.72-1.9-.72Z"/>
    </g>
    <g>
      <path class="cls-1" d="M593.53,380.8s-.95-3.08-2.23-.85c0,0,0,2.55,2.23.85Z"/>
      <path class="cls-2" d="M592.96,380.98c.38-.35.23-.96.23-.96-.34-.79-.86-.86-.86-.86-.55,0-.86.52-.86.52-.24,1.97,1.11,1.66,1.49,1.3ZM591.87,379.55h.68c-.43.29-.21.89-.21.89l-.62-.17c-.07-.41.15-.72.15-.72Z"/>
      <path class="cls-1" d="M600.33,380.8s.95-3.08,2.23-.85c0,0,0,2.55-2.23.85Z"/>
      <path class="cls-2" d="M602.37,379.67s-.3-.51-.86-.52c0,0-.52.06-.86.86,0,0-.15.61.23.96.38.35,1.72.67,1.49-1.3ZM601.04,379.6l.58.1s-.31.4,0,.82l-.66-.19s-.12-.36.08-.73Z"/>
      <path class="cls-1" d="M591.7,387.62l.64.49-.32.89v.83s0,.55,0,.55l.34.98.86,1s.26.36.91.61h1.54s1.05,0,1.05,0h.53s.57.15.57.15l1.04-.15h1.28s.98-.46,1.05-.54.34-.46.34-.46l.5-.53"/>
      <path class="cls-2" d="M599.43,393.03s-3.02,1.56-3.45.02c0,0,1.2-.25,3.45-.02Z"/>
      <path class="cls-2" d="M594.82,390.01v.81s.61.57.61.57l1.21.4h1.01s.53-.24.53-.24l.69.24h.89s1.17-1.13,1.17-1.13l.26-1.13v-1.05s-1.14-.61-1.14-.61h-1.21s-.53.49-.53.49l-.81-.2s-1.74-.65-2.18,0-.49,1.86-.49,1.86ZM598.87,389.37c.15-1.41,1.47-.43,1.47-.43-1.91,1.39-1.47.43-1.47.43ZM595.79,388.98c.97-1.03,1.43.54,1.43.54-2.36-.04-1.43-.54-1.43-.54Z"/>
    </g>
    <g>
      <path class="cls-1" d="M751.2,566.34s1.95-6.29,4.56-1.74c0,0,0,5.21-4.56,1.74Z"/>
      <path class="cls-2" d="M755.39,564.03s-.62-1.05-1.75-1.06c0,0-1.07.13-1.75,1.75,0,0-.31,1.25.46,1.97.77.72,3.53,1.37,3.04-2.66ZM754.91,565.24l-1.27.35s.45-1.21-.42-1.82h1.38s.46.63.31,1.46Z"/>
      <path class="cls-1" d="M737.28,566.34s-1.95-6.29-4.56-1.74c0,0,0,5.21,4.56,1.74Z"/>
      <path class="cls-2" d="M736.14,566.7c.77-.72.46-1.97.46-1.97-.69-1.62-1.75-1.75-1.75-1.75-1.14,0-1.75,1.06-1.75,1.06-.49,4.04,2.28,3.39,3.04,2.66ZM736,565.36l-1.35.38c.64-.84,0-1.67,0-1.67l1.18-.2c.41.75.17,1.49.17,1.49Z"/>
      <path class="cls-1" d="M754.94,580.3l-1.3.99.65,1.82v2.81l-.7,2.01-1.76,2.05s-.54.75-1.86,1.24h-3.15s-2.15,0-2.15,0h-1.08s-1.16.31-1.16.31l-2.13-.31h-2.62s-2-.95-2.15-1.11-.69-.95-.69-.95l-1.02-1.09"/>
      <path class="cls-2" d="M739.11,591.37s6.18,3.2,7.05.03c0,0-2.46-.51-7.05-.03Z"/>
      <path class="cls-2" d="M747.56,581.38c-.91-1.32-4.47,0-4.47,0l-1.66.41-1.08-1h-2.48l-2.34,1.25v2.15l.53,2.32,2.39,2.32h1.82l1.41-.5,1.08.5h2.07l2.48-.83,1.24-1.16v-1.66s-.08-2.48-.99-3.81ZM737.25,583s2.7-2.01,3.01.88c0,0,.9,1.97-3.01-.88ZM743.63,584.18s.94-3.23,2.93-1.11c0,0,1.9,1.03-2.93,1.11Z"/>
    </g>
    <path class="cls-2" d="M1789,3v1018H3V3h1786M1792,0H0v1024h1792V0h0Z"/>
  </g>
</svg>